<svg width="127" height="46" viewBox="0 0 127 46" fill="none" xmlns="http://www.w3.org/2000/svg">
<rect width="126.272" height="46" rx="10" fill="white"/>
<path fill-rule="evenodd" clip-rule="evenodd" d="M29.5905 23.6358C29.6106 22.0777 30.4274 20.6385 31.7549 19.8224C30.9136 18.621 29.5551 17.8866 28.0892 17.8407C26.5469 17.6788 25.0517 18.7636 24.2658 18.7636C23.4647 18.7636 22.2546 17.8568 20.9516 17.8836C19.2372 17.939 17.6776 18.8901 16.8435 20.389C15.0672 23.4643 16.3922 27.984 18.0937 30.4699C18.945 31.6871 19.9399 33.0468 21.2418 32.9986C22.5157 32.9458 22.9915 32.1863 24.5292 32.1863C26.0527 32.1863 26.4991 32.9986 27.8274 32.968C29.1944 32.9458 30.0556 31.7453 30.8771 30.5165C31.4887 29.6492 31.9594 28.6906 32.2717 27.6762C30.6481 26.9895 29.5924 25.3986 29.5905 23.6358Z" fill="black"/>
<path fill-rule="evenodd" clip-rule="evenodd" d="M27.0819 16.2059C27.8272 15.3112 28.1944 14.1611 28.1055 13C26.9668 13.1196 25.9149 13.6638 25.1595 14.5243C24.4136 15.3732 24.0357 16.4838 24.1091 17.6115C25.263 17.6234 26.3587 17.1053 27.0819 16.2059Z" fill="black"/>
<path d="M42.5324 27.5L46.3127 17.4922H48.172L52.0002 27.5H50.0451L47.4201 20.3018C47.3654 20.1514 47.3198 20.0055 47.2834 19.8643C47.2515 19.723 47.2196 19.5794 47.1877 19.4336H47.1261C47.0988 19.5794 47.0669 19.723 47.0304 19.8643C46.994 20.0055 46.9484 20.1514 46.8937 20.3018L44.2687 27.5H42.5324ZM44.5011 25.1689L44.9592 23.7744H49.4504L49.9084 25.1689H44.5011ZM52.8136 30.3438V20.2949H54.4611L54.509 21.1494H54.55C54.7095 20.8669 54.9738 20.6299 55.3429 20.4385C55.7166 20.2471 56.1382 20.1514 56.6076 20.1514C57.5282 20.1514 58.2687 20.4863 58.8293 21.1562C59.3898 21.8216 59.6701 22.6989 59.6701 23.7881V24.0068C59.6701 25.0869 59.3921 25.9619 58.8361 26.6318C58.2847 27.3018 57.5555 27.6367 56.6486 27.6367C56.1838 27.6367 55.7713 27.557 55.4113 27.3975C55.0513 27.238 54.7778 27.0169 54.591 26.7344V30.3438H52.8136ZM54.591 25.1895C54.7095 25.4766 54.91 25.7295 55.1926 25.9482C55.4751 26.1624 55.8101 26.2695 56.1974 26.2695C56.7625 26.2695 57.1795 26.0713 57.4484 25.6748C57.7218 25.2738 57.8586 24.7428 57.8586 24.082V23.7129C57.8586 23.0475 57.7218 22.5166 57.4484 22.1201C57.1795 21.7236 56.7603 21.5254 56.1906 21.5254C55.7941 21.5254 55.4592 21.6325 55.1857 21.8467C54.9123 22.0563 54.714 22.3024 54.591 22.585V25.1895ZM61.1261 30.3438V20.2949H62.7736L62.8215 21.1494H62.8625C63.022 20.8669 63.2863 20.6299 63.6554 20.4385C64.0291 20.2471 64.4507 20.1514 64.9201 20.1514C65.8407 20.1514 66.5812 20.4863 67.1418 21.1562C67.7023 21.8216 67.9826 22.6989 67.9826 23.7881V24.0068C67.9826 25.0869 67.7046 25.9619 67.1486 26.6318C66.5972 27.3018 65.868 27.6367 64.9611 27.6367C64.4963 27.6367 64.0838 27.557 63.7238 27.3975C63.3638 27.238 63.0903 27.0169 62.9035 26.7344V30.3438H61.1261ZM62.9035 25.1895C63.022 25.4766 63.2225 25.7295 63.5051 25.9482C63.7876 26.1624 64.1226 26.2695 64.5099 26.2695C65.075 26.2695 65.492 26.0713 65.7609 25.6748C66.0343 25.2738 66.1711 24.7428 66.1711 24.082V23.7129C66.1711 23.0475 66.0343 22.5166 65.7609 22.1201C65.492 21.7236 65.0728 21.5254 64.5031 21.5254C64.1066 21.5254 63.7717 21.6325 63.4982 21.8467C63.2248 22.0563 63.0265 22.3024 62.9035 22.585V25.1895ZM72.467 24.7109V24.5605H74.3332V24.6904C74.3332 25.2191 74.5041 25.6156 74.8459 25.8799C75.1922 26.1396 75.6753 26.2695 76.2951 26.2695C76.9149 26.2695 77.3888 26.1419 77.717 25.8867C78.0496 25.6315 78.216 25.2943 78.216 24.875C78.216 24.4603 78.0565 24.1367 77.7375 23.9043C77.423 23.6719 76.7668 23.4235 75.7687 23.1592C74.7114 22.8721 73.9253 22.5029 73.4103 22.0518C72.8999 21.6006 72.6424 20.974 72.6379 20.1719C72.6379 19.3288 72.9592 18.6475 73.6017 18.1279C74.2489 17.6038 75.1261 17.3418 76.2336 17.3418C77.3364 17.3418 78.2183 17.6152 78.8791 18.1621C79.5399 18.7044 79.8703 19.4154 79.8703 20.2949V20.4385H78.0383V20.3086C78.0383 19.8529 77.8856 19.486 77.5802 19.208C77.2795 18.9255 76.8329 18.7842 76.2404 18.7842C75.6434 18.7842 75.2036 18.8981 74.9211 19.126C74.6385 19.3538 74.4972 19.6637 74.4972 20.0557C74.4972 20.4294 74.6454 20.7165 74.9416 20.917C75.2424 21.1175 75.8918 21.3545 76.8898 21.6279C77.9334 21.915 78.7241 22.2933 79.2619 22.7627C79.7996 23.2275 80.0685 23.8975 80.0685 24.7725C80.0685 25.6794 79.7267 26.3949 79.0431 26.9189C78.3595 27.443 77.4458 27.7051 76.3019 27.7051C75.1626 27.7051 74.2375 27.4453 73.5265 26.9258C72.8202 26.4062 72.467 25.668 72.467 24.7109ZM80.5402 21.6074V20.2949H84.8674V21.6074H80.5402ZM81.6818 25.4766V21.0059L81.6886 20.8008V18.5723H83.4592V25.4492C83.4592 25.7728 83.5207 25.9984 83.6437 26.126C83.7668 26.2536 83.9468 26.3174 84.1838 26.3174C84.2931 26.3174 84.4025 26.306 84.5119 26.2832C84.6258 26.2559 84.7375 26.2217 84.8468 26.1807V27.4932C84.7375 27.5479 84.5848 27.5957 84.3888 27.6367C84.1974 27.6823 83.9878 27.7051 83.7599 27.7051C83.1356 27.7051 82.632 27.5251 82.2492 27.165C81.8709 26.805 81.6818 26.2422 81.6818 25.4766ZM85.5646 24.0068V23.7881C85.5646 22.667 85.895 21.7715 86.5558 21.1016C87.2212 20.4271 88.0916 20.0898 89.1672 20.0898C90.2472 20.0898 91.1177 20.4271 91.7785 21.1016C92.4439 21.7715 92.7765 22.667 92.7765 23.7881V24.0068C92.7765 25.1234 92.4439 26.0189 91.7785 26.6934C91.1177 27.3678 90.2472 27.7051 89.1672 27.7051C88.0916 27.7051 87.2212 27.3678 86.5558 26.6934C85.895 26.0189 85.5646 25.1234 85.5646 24.0068ZM87.383 23.7129V24.082C87.383 24.7747 87.5356 25.3239 87.841 25.7295C88.1463 26.1305 88.5884 26.3311 89.1672 26.3311C89.7459 26.3311 90.188 26.1305 90.4933 25.7295C90.7987 25.3239 90.9513 24.7747 90.9513 24.082V23.7129C90.9513 23.0156 90.7964 22.4665 90.4865 22.0654C90.1812 21.6644 89.7414 21.4639 89.1672 21.4639C88.5975 21.4639 88.1577 21.6644 87.8478 22.0654C87.5379 22.4665 87.383 23.0156 87.383 23.7129ZM94.2394 27.5V20.2949H95.9142L95.9621 21.1289H95.9963C96.1512 20.8509 96.3631 20.6094 96.632 20.4043C96.9009 20.1992 97.2108 20.0967 97.5617 20.0967C97.6574 20.0967 97.7554 20.1081 97.8556 20.1309C97.9559 20.1536 98.0265 20.1742 98.0676 20.1924V21.751C97.9855 21.7327 97.8967 21.7191 97.8009 21.71C97.7098 21.7008 97.6095 21.6963 97.5002 21.6963C97.1538 21.6963 96.8508 21.7943 96.591 21.9902C96.3312 22.1816 96.1421 22.4255 96.0236 22.7217V27.5H94.2394ZM98.6896 24.0068V23.7881C98.6896 22.6807 99.0109 21.7874 99.6535 21.1084C100.301 20.4294 101.137 20.0898 102.162 20.0898C103.188 20.0898 103.987 20.4089 104.562 21.0469C105.14 21.6803 105.43 22.5531 105.43 23.665V24.3213H99.8722V23.1455H103.659V22.9814C103.664 22.5439 103.536 22.1725 103.277 21.8672C103.021 21.5618 102.654 21.4092 102.176 21.4092C101.611 21.4092 101.185 21.6211 100.898 22.0449C100.611 22.4688 100.467 23.0247 100.467 23.7129V24.0752C100.467 24.7497 100.62 25.2988 100.925 25.7227C101.235 26.1465 101.697 26.3584 102.313 26.3584C102.723 26.3584 103.076 26.2627 103.372 26.0713C103.673 25.8753 103.915 25.6475 104.097 25.3877L105.32 26.2354C105.093 26.6364 104.719 26.9827 104.199 27.2744C103.68 27.5615 103.06 27.7051 102.34 27.7051C101.192 27.7051 100.296 27.3656 99.6535 26.6865C99.0109 26.0029 98.6896 25.1097 98.6896 24.0068Z" fill="#020F32"/>
</svg>
