<svg width="64" height="64" viewBox="0 0 64 64" fill="none" xmlns="http://www.w3.org/2000/svg">
<path fill-rule="evenodd" clip-rule="evenodd" d="M47.6658 24.0303C49.8437 24.0303 51.9225 24.4761 53.9024 25.3676C55.8823 26.2591 57.6149 27.4478 59.0998 28.9337C60.5847 30.4195 61.7726 32.1529 62.6636 34.134C63.5545 36.1152 64 38.1958 64 40.3751V48.2502C64 50.5285 63.5545 52.6087 62.6636 54.4909C62.3789 55.0914 62.0697 55.6671 61.7232 56.2181C61.7418 56.2491 61.7603 56.2741 61.7727 56.3051C61.0859 57.469 60.2693 58.5214 59.3226 59.4687C57.8872 60.905 56.204 62.0193 54.2736 62.8118C52.3433 63.6043 50.3387 64.0006 48.2598 64.0006H15.7402C13.6613 64.0006 11.6564 63.6043 9.72598 62.8118C7.79558 62.0193 6.1128 60.905 4.67738 59.4687C3.73075 58.5214 2.91421 57.469 2.22125 56.3051C2.19031 56.2493 2.15324 56.1871 2.12231 56.1252C1.80676 55.5804 1.52192 55.0108 1.26205 54.4164C0.4206 52.4848 0 50.4295 0 48.2502V44.1082H11.6009C13.884 44.1082 15.7402 45.9656 15.7402 48.2502H42.2955C45.2591 48.2502 47.6658 45.8481 47.6658 42.8763V24.0303Z" fill="url(#paint0_linear_1287_8053)"/>
<path fill-rule="evenodd" clip-rule="evenodd" d="M15.7402 39.8218C13.6613 39.8218 11.6564 39.4006 9.72598 38.5586C7.79558 37.7166 6.1128 36.5528 4.67738 35.0669C3.24196 33.5811 2.10351 31.8474 1.26205 29.8662C0.4206 27.885 0 25.7553 0 23.477V15.7504C0 13.5711 0.4206 11.5155 1.26205 9.58381C1.54666 8.92754 1.86858 8.30213 2.22125 7.70158C2.91421 6.53764 3.73075 5.48537 4.67738 4.53192C6.1128 3.09556 7.79558 1.98091 9.72598 1.18843C11.6564 0.395961 13.6613 0 15.7402 0H48.2598C50.3387 0 52.3433 0.395961 54.2736 1.18843C56.204 1.98091 57.8872 3.09556 59.3226 4.53192C60.2693 5.48537 61.0859 6.53764 61.7727 7.70158C62.1316 8.30213 62.4533 8.92754 62.7379 9.58381C63.5794 11.5155 64 13.5711 64 15.7504V19.8984H52.3991C50.1098 19.8984 48.2598 18.0412 48.2598 15.7504H47.6658H21.1105C18.1469 15.7504 15.7402 18.1586 15.7402 21.1303V39.8218Z" fill="url(#paint1_linear_1287_8053)"/>
<defs>
<linearGradient id="paint0_linear_1287_8053" x1="32" y1="24.0303" x2="32" y2="64.0006" gradientUnits="userSpaceOnUse">
<stop stop-color="#6A88FA"/>
<stop offset="1" stop-color="#0638F6"/>
</linearGradient>
<linearGradient id="paint1_linear_1287_8053" x1="32" y1="0" x2="32" y2="39.8218" gradientUnits="userSpaceOnUse">
<stop stop-color="#0638F6"/>
<stop offset="1" stop-color="#6A88FA"/>
</linearGradient>
</defs>
</svg>
