<svg width="141" height="46" viewBox="0 0 141 46" fill="none" xmlns="http://www.w3.org/2000/svg">
<rect width="140.954" height="46" rx="10" fill="white"/>
<path fill-rule="evenodd" clip-rule="evenodd" d="M16.3595 13.309C16.1331 13.5487 16 13.9199 16 14.4016V31.5988C16 32.0805 16.1331 32.4517 16.3595 32.6914L16.4171 32.7475L26.0508 23.1138V22.8866L16.4171 13.2529L16.3595 13.309Z" fill="#00D7FE"/>
<mask id="mask0_2729_8987" style="mask-type:alpha" maskUnits="userSpaceOnUse" x="26" y="19" width="8" height="8">
<path d="M29.2612 26.326L26.051 23.1135V22.8863L29.2627 19.6746L33.1398 21.8769C34.2263 22.4948 34.2263 23.505 33.1398 24.1221L29.3351 26.284L29.2612 26.326Z" fill="white"/>
</mask>
<g mask="url(#mask0_2729_8987)">
<path fill-rule="evenodd" clip-rule="evenodd" d="M29.2614 26.326L26.0512 23.1135V22.8863L29.263 19.6746L33.1401 21.8769C34.2265 22.4948 34.2265 23.505 33.1401 24.1221L29.3353 26.284L29.2614 26.326Z" fill="url(#paint0_linear_2729_8987)"/>
</g>
<mask id="mask1_2729_8987" style="mask-type:alpha" maskUnits="userSpaceOnUse" x="16" y="23" width="14" height="10">
<path d="M29.3345 26.2841L26.0504 23L16.3592 32.6912C16.7179 33.0702 17.3094 33.1169 17.9755 32.7387L29.3345 26.2841Z" fill="white"/>
</mask>
<g mask="url(#mask1_2729_8987)">
<path fill-rule="evenodd" clip-rule="evenodd" d="M29.3343 26.2841L26.0502 23L16.3589 32.6912C16.7177 33.0702 17.3092 33.1169 17.9753 32.7387L29.3343 26.2841Z" fill="url(#paint1_linear_2729_8987)"/>
</g>
<mask id="mask2_2729_8987" style="mask-type:alpha" maskUnits="userSpaceOnUse" x="16" y="13" width="14" height="10">
<path d="M29.3345 19.7159L17.9755 13.2613C17.3094 12.8831 16.7179 12.9298 16.3592 13.3088L26.0504 23L29.3345 19.7159Z" fill="white"/>
</mask>
<g mask="url(#mask2_2729_8987)">
<path fill-rule="evenodd" clip-rule="evenodd" d="M29.3343 19.7159L17.9753 13.2613C17.3092 12.8831 16.7177 12.9298 16.3589 13.3088L26.0502 23L29.3343 19.7159Z" fill="url(#paint2_linear_2729_8987)"/>
</g>
<path d="M44.8841 22.8379V22.209C44.8841 20.6413 45.2875 19.4382 46.0941 18.5996C46.9053 17.7611 47.9694 17.3418 49.2865 17.3418C50.4805 17.3418 51.4216 17.6449 52.1097 18.251C52.7979 18.8525 53.1556 19.5908 53.183 20.4658V20.5547H51.3441V20.4863C51.3441 20.0488 51.1641 19.6569 50.8041 19.3105C50.444 18.9642 49.9177 18.791 49.225 18.791C48.4821 18.791 47.8851 19.0713 47.434 19.6318C46.9828 20.1878 46.7572 20.999 46.7572 22.0654V22.9814C46.7572 24.0615 46.9919 24.8796 47.4613 25.4355C47.9353 25.987 48.5869 26.2627 49.4164 26.2627C49.8402 26.2627 50.2048 26.2194 50.5101 26.1328C50.8155 26.0417 51.1094 25.8981 51.392 25.7021V23.7402H49.2797V22.3457H53.1898V26.3311C52.8526 26.6683 52.3672 26.9827 51.7338 27.2744C51.1003 27.5615 50.3278 27.7051 49.4164 27.7051C48.0173 27.7051 46.9121 27.2858 46.1009 26.4473C45.2897 25.6087 44.8841 24.4056 44.8841 22.8379ZM54.4408 24.0068V23.7881C54.4408 22.667 54.7712 21.7715 55.432 21.1016C56.0974 20.4271 56.9678 20.0898 58.0433 20.0898C59.1234 20.0898 59.9938 20.4271 60.6547 21.1016C61.32 21.7715 61.6527 22.667 61.6527 23.7881V24.0068C61.6527 25.1234 61.32 26.0189 60.6547 26.6934C59.9938 27.3678 59.1234 27.7051 58.0433 27.7051C56.9678 27.7051 56.0974 27.3678 55.432 26.6934C54.7712 26.0189 54.4408 25.1234 54.4408 24.0068ZM56.2591 23.7129V24.082C56.2591 24.7747 56.4118 25.3239 56.7172 25.7295C57.0225 26.1305 57.4646 26.3311 58.0433 26.3311C58.6221 26.3311 59.0642 26.1305 59.3695 25.7295C59.6748 25.3239 59.8275 24.7747 59.8275 24.082V23.7129C59.8275 23.0156 59.6726 22.4665 59.3627 22.0654C59.0573 21.6644 58.6175 21.4639 58.0433 21.4639C57.4737 21.4639 57.0339 21.6644 56.724 22.0654C56.4141 22.4665 56.2591 23.0156 56.2591 23.7129ZM62.7123 24.0068V23.7881C62.7123 22.667 63.0427 21.7715 63.7035 21.1016C64.3688 20.4271 65.2393 20.0898 66.3148 20.0898C67.3949 20.0898 68.2653 20.4271 68.9261 21.1016C69.5915 21.7715 69.9242 22.667 69.9242 23.7881V24.0068C69.9242 25.1234 69.5915 26.0189 68.9261 26.6934C68.2653 27.3678 67.3949 27.7051 66.3148 27.7051C65.2393 27.7051 64.3688 27.3678 63.7035 26.6934C63.0427 26.0189 62.7123 25.1234 62.7123 24.0068ZM64.5306 23.7129V24.082C64.5306 24.7747 64.6833 25.3239 64.9886 25.7295C65.294 26.1305 65.736 26.3311 66.3148 26.3311C66.8936 26.3311 67.3356 26.1305 67.641 25.7295C67.9463 25.3239 68.099 24.7747 68.099 24.082V23.7129C68.099 23.0156 67.944 22.4665 67.6341 22.0654C67.3288 21.6644 66.889 21.4639 66.3148 21.4639C65.7452 21.4639 65.3054 21.6644 64.9955 22.0654C64.6856 22.4665 64.5306 23.0156 64.5306 23.7129ZM71.3666 29.4688L72.2142 28.3203C72.392 28.5072 72.6677 28.6826 73.0414 28.8467C73.4151 29.0153 73.8298 29.0996 74.2855 29.0996C74.8233 29.0996 75.2539 28.9378 75.5775 28.6143C75.9056 28.2907 76.0697 27.8122 76.0697 27.1787V26.7207C75.8828 27.0033 75.6162 27.2266 75.2699 27.3906C74.9281 27.5547 74.5225 27.6367 74.0531 27.6367C73.1325 27.6367 72.3897 27.3018 71.8246 26.6318C71.264 25.9619 70.9838 25.0869 70.9838 24.0068V23.7881C70.9838 22.708 71.264 21.833 71.8246 21.1631C72.3851 20.4932 73.128 20.1582 74.0531 20.1582C74.5179 20.1582 74.9327 20.2539 75.2972 20.4453C75.6618 20.6367 75.9261 20.8737 76.0902 21.1562H76.1244L76.1722 20.2949H77.8402V27.1445C77.8402 28.2201 77.5144 29.0449 76.8627 29.6191C76.211 30.1979 75.3793 30.4873 74.3675 30.4873C73.7523 30.4873 73.1827 30.3893 72.6586 30.1934C72.139 30.002 71.7084 29.7604 71.3666 29.4688ZM72.8021 24.0752C72.8021 24.7132 72.9411 25.2396 73.2191 25.6543C73.4971 26.0645 73.9278 26.2695 74.5111 26.2695C74.8939 26.2695 75.2198 26.1602 75.4886 25.9414C75.7575 25.7227 75.9512 25.4743 76.0697 25.1963V22.626C75.9466 22.3161 75.7484 22.0563 75.475 21.8467C75.2061 21.6325 74.8757 21.5254 74.4838 21.5254C73.9187 21.5254 73.4971 21.7327 73.2191 22.1475C72.9411 22.5576 72.8021 23.0817 72.8021 23.7197V24.0752ZM79.7269 27.5V17.0205H81.5111V27.5H79.7269ZM83.0013 24.0068V23.7881C83.0013 22.6807 83.3226 21.7874 83.9652 21.1084C84.6123 20.4294 85.4486 20.0898 86.474 20.0898C87.4994 20.0898 88.2992 20.4089 88.8734 21.0469C89.4522 21.6803 89.7416 22.5531 89.7416 23.665V24.3213H84.184V23.1455H87.9711V22.9814C87.9756 22.5439 87.848 22.1725 87.5882 21.8672C87.333 21.5618 86.9662 21.4092 86.4877 21.4092C85.9226 21.4092 85.4965 21.6211 85.2093 22.0449C84.9222 22.4688 84.7787 23.0247 84.7787 23.7129V24.0752C84.7787 24.7497 84.9313 25.2988 85.2367 25.7227C85.5466 26.1465 86.0091 26.3584 86.6244 26.3584C87.0345 26.3584 87.3877 26.2627 87.684 26.0713C87.9847 25.8753 88.2263 25.6475 88.4086 25.3877L89.6322 26.2354C89.4043 26.6364 89.0306 26.9827 88.5111 27.2744C87.9916 27.5615 87.3718 27.7051 86.6517 27.7051C85.5033 27.7051 84.6078 27.3656 83.9652 26.6865C83.3226 26.0029 83.0013 25.1097 83.0013 24.0068ZM94.7113 27.5V17.5469H98.3412C99.4759 17.5469 100.349 17.8249 100.959 18.3809C101.57 18.9323 101.875 19.7048 101.875 20.6982C101.875 21.6872 101.57 22.4642 100.959 23.0293C100.349 23.5898 99.4737 23.8701 98.3343 23.8701H96.5433V27.5H94.7113ZM96.5433 22.4688H98.2113C98.8994 22.4688 99.3757 22.307 99.64 21.9834C99.9089 21.6598 100.043 21.2314 100.043 20.6982C100.043 20.1696 99.9089 19.748 99.64 19.4336C99.3757 19.1146 98.8994 18.9551 98.2113 18.9551H96.5433V22.4688ZM103.174 27.5V17.0205H104.958V27.5H103.174ZM106.476 25.3809C106.476 24.597 106.779 24.0046 107.385 23.6035C107.996 23.1979 108.764 22.9951 109.689 22.9951H111.159V22.5576C111.159 22.2021 111.065 21.9128 110.878 21.6895C110.696 21.4616 110.372 21.3477 109.908 21.3477C109.443 21.3477 109.112 21.4411 108.916 21.6279C108.725 21.8148 108.629 22.0358 108.629 22.291V22.373H106.872V22.291C106.872 21.6712 107.157 21.1494 107.727 20.7256C108.297 20.3018 109.046 20.0898 109.976 20.0898C110.906 20.0898 111.63 20.2949 112.15 20.7051C112.674 21.1107 112.936 21.7305 112.936 22.5645V25.873C112.936 26.1693 112.961 26.4495 113.011 26.7139C113.061 26.9736 113.13 27.1992 113.216 27.3906V27.5H111.48C111.421 27.3906 111.368 27.2493 111.323 27.0762C111.277 26.903 111.247 26.7321 111.234 26.5635C111.083 26.8415 110.814 27.0898 110.427 27.3086C110.04 27.5273 109.55 27.6367 108.957 27.6367C108.26 27.6367 107.672 27.4476 107.194 27.0693C106.715 26.6865 106.476 26.1237 106.476 25.3809ZM108.26 25.2373C108.26 25.5837 108.36 25.8617 108.561 26.0713C108.761 26.2764 109.078 26.3789 109.511 26.3789C109.962 26.3789 110.35 26.2308 110.673 25.9346C110.997 25.6383 111.159 25.2988 111.159 24.916V24.1162H109.921C109.365 24.1162 108.948 24.2142 108.67 24.4102C108.397 24.6061 108.26 24.8818 108.26 25.2373ZM114.33 30.3438L114.344 28.9834C114.458 29.0199 114.586 29.0472 114.727 29.0654C114.868 29.0882 115.005 29.0996 115.137 29.0996C115.447 29.0996 115.718 28.9948 115.951 28.7852C116.183 28.5755 116.399 28.138 116.6 27.4727L116.552 27.4658L113.79 20.2949H115.575L117.119 24.6631C117.179 24.8408 117.227 25.0049 117.263 25.1553C117.304 25.3057 117.341 25.4538 117.372 25.5996H117.413C117.45 25.4538 117.486 25.3057 117.523 25.1553C117.564 25.0049 117.614 24.8408 117.673 24.6631L119.136 20.2949H120.756L117.81 28.3887C117.564 29.0677 117.229 29.585 116.805 29.9404C116.381 30.3005 115.866 30.4805 115.26 30.4805C115.064 30.4805 114.891 30.4691 114.741 30.4463C114.595 30.4235 114.458 30.3893 114.33 30.3438Z" fill="#020F32"/>
<defs>
<linearGradient id="paint0_linear_2729_8987" x1="32.4333" y1="23.0001" x2="26.0512" y2="23.0001" gradientUnits="userSpaceOnUse">
<stop stop-color="#FFBC00"/>
<stop offset="1" stop-color="#FFDA03"/>
</linearGradient>
<linearGradient id="paint1_linear_2729_8987" x1="27.5495" y1="26.0902" x2="19.2198" y2="32.9561" gradientUnits="userSpaceOnUse">
<stop stop-color="#E22652"/>
<stop offset="1" stop-color="#FF3A44"/>
</linearGradient>
<linearGradient id="paint2_linear_2729_8987" x1="17.8264" y1="14.4755" x2="23.38" y2="19.3588" gradientUnits="userSpaceOnUse">
<stop stop-color="#0ED574"/>
<stop offset="1" stop-color="#07F076"/>
</linearGradient>
</defs>
</svg>
