<svg xmlns="http://www.w3.org/2000/svg" style="display:none">
  <symbol id="hero-lock-closed" viewBox="0 0 24 24" fill="currentColor"><path fill-rule="evenodd" d="M12 1.5a5.25 5.25 0 0 0-5.25 5.25v3a3 3 0 0 0-3 3v6.75a3 3 0 0 0 3 3h10.5a3 3 0 0 0 3-3v-6.75a3 3 0 0 0-3-3v-3c0-2.9-2.35-5.25-5.25-5.25Zm3.75 8.25v-3a3.75 3.75 0 1 0-7.5 0v3h7.5Z" clip-rule="evenodd"></path></symbol>
  <symbol id="hero-cube" viewBox="0 0 24 24" fill="currentColor"><path d="M12.378 1.602a.75.75 0 0 0-.756 0L3 6.632l9 5.25 9-5.25-8.622-5.03ZM21.75 7.93l-9 5.25v9l8.628-5.032a.75.75 0 0 0 .372-.648V7.93ZM11.25 22.18v-9l-9-5.25v8.57a.75.75 0 0 0 .372.648l8.628 5.033Z"></path></symbol>
  <symbol id="hero-plus" viewBox="0 0 24 24" fill="currentColor"><path fill-rule="evenodd" d="M12 3.75a.75.75 0 0 1 .75.75v6.75h6.75a.75.75 0 0 1 0 1.5h-6.75v6.75a.75.75 0 0 1-1.5 0v-6.75H4.5a.75.75 0 0 1 0-1.5h6.75V4.5a.75.75 0 0 1 .75-.75Z" clip-rule="evenodd"></path></symbol>
  <symbol id="hero-qr-code" viewBox="0 0 24 24" fill="currentColor"><path fill-rule="evenodd" d="M3 4.875C3 3.839 3.84 3 4.875 3h4.5c1.036 0 1.875.84 1.875 1.875v4.5c0 1.036-.84 1.875-1.875 1.875h-4.5A1.875 1.875 0 0 1 3 9.375v-4.5ZM4.875 4.5a.375.375 0 0 0-.375.375v4.5c0 .207.168.375.375.375h4.5a.375.375 0 0 0 .375-.375v-4.5a.375.375 0 0 0-.375-.375h-4.5Zm7.875.375c0-1.036.84-1.875 1.875-1.875h4.5C20.16 3 21 3.84 21 4.875v4.5c0 1.036-.84 1.875-1.875 1.875h-4.5a1.875 1.875 0 0 1-1.875-1.875v-4.5Zm1.875-.375a.375.375 0 0 0-.375.375v4.5c0 .207.168.375.375.375h4.5a.375.375 0 0 0 .375-.375v-4.5a.375.375 0 0 0-.375-.375h-4.5ZM6 6.75A.75.75 0 0 1 6.75 6h.75a.75.75 0 0 1 .75.75v.75a.75.75 0 0 1-.75.75h-.75A.75.75 0 0 1 6 7.5v-.75Zm9.75 0A.75.75 0 0 1 16.5 6h.75a.75.75 0 0 1 .75.75v.75a.75.75 0 0 1-.75.75h-.75a.75.75 0 0 1-.75-.75v-.75ZM3 14.625c0-1.036.84-1.875 1.875-1.875h4.5c1.036 0 1.875.84 1.875 1.875v4.5c0 1.035-.84 1.875-1.875 1.875h-4.5A1.875 1.875 0 0 1 3 19.125v-4.5Zm1.875-.375a.375.375 0 0 0-.375.375v4.5c0 .207.168.375.375.375h4.5a.375.375 0 0 0 .375-.375v-4.5a.375.375 0 0 0-.375-.375h-4.5Zm7.875-.75a.75.75 0 0 1 .75-.75h.75a.75.75 0 0 1 .75.75v.75a.75.75 0 0 1-.75.75h-.75a.75.75 0 0 1-.75-.75v-.75Zm6 0a.75.75 0 0 1 .75-.75h.75a.75.75 0 0 1 .75.75v.75a.75.75 0 0 1-.75.75h-.75a.75.75 0 0 1-.75-.75v-.75ZM6 16.5a.75.75 0 0 1 .75-.75h.75a.75.75 0 0 1 .75.75v.75a.75.75 0 0 1-.75.75h-.75a.75.75 0 0 1-.75-.75v-.75Zm9.75 0a.75.75 0 0 1 .75-.75h.75a.75.75 0 0 1 .75.75v.75a.75.75 0 0 1-.75.75h-.75a.75.75 0 0 1-.75-.75v-.75Zm-3 3a.75.75 0 0 1 .75-.75h.75a.75.75 0 0 1 .75.75v.75a.75.75 0 0 1-.75.75h-.75a.75.75 0 0 1-.75-.75v-.75Zm6 0a.75.75 0 0 1 .75-.75h.75a.75.75 0 0 1 .75.75v.75a.75.75 0 0 1-.75.75h-.75a.75.75 0 0 1-.75-.75v-.75Z" clip-rule="evenodd"></path></symbol>
  <symbol id="hero-currency-dollar" viewBox="0 0 24 24" fill="currentColor"><path d="M10.464 8.746c.227-.18.497-.311.786-.394v2.795a2.252 2.252 0 0 1-.786-.393c-.394-.313-.546-.681-.546-1.004 0-.323.152-.691.546-1.004ZM12.75 15.662v-2.824c.347.085.664.228.921.421.427.32.579.686.579.991 0 .305-.152.671-.579.991a2.534 2.534 0 0 1-.921.42Z"></path><path fill-rule="evenodd" d="M12 2.25c-5.385 0-9.75 4.365-9.75 9.75s4.365 9.75 9.75 9.75 9.75-4.365 9.75-9.75S17.385 2.25 12 2.25ZM12.75 6a.75.75 0 0 0-1.5 0v.816a3.836 3.836 0 0 0-1.72.756c-.712.566-1.112 1.35-1.112 2.178 0 .829.4 1.612 1.113 2.178.502.4 1.102.647 1.719.756v2.978a2.536 2.536 0 0 1-.921-.421l-.879-.66a.75.75 0 0 0-.9 1.2l.879.66c.533.4 1.169.645 1.821.75V18a.75.75 0 0 0 1.5 0v-.81a4.124 4.124 0 0 0 1.821-.749c.745-.559 1.179-1.344 1.179-2.191 0-.847-.434-1.632-1.179-2.191a4.122 4.122 0 0 0-1.821-.75V8.354c.29.082.559.213.786.393l.415.33a.75.75 0 0 0 .933-1.175l-.415-.33a3.836 3.836 0 0 0-1.719-.755V6Z" clip-rule="evenodd"></path></symbol>
  <symbol id="hero-presentation-chart-line" viewBox="0 0 24 24" fill="currentColor"><path fill-rule="evenodd" d="M2.25 2.25a.75.75 0 0 0 0 1.5H3v10.5a3 3 0 0 0 3 3h1.21l-1.172 3.513a.75.75 0 0 0 1.424.474l.329-.987h8.418l.33.987a.75.75 0 0 0 1.422-.474l-1.17-3.513H18a3 3 0 0 0 3-3V3.75h.75a.75.75 0 0 0 0-1.5H2.25Zm6.54 15h6.42l.5 1.5H8.29l.5-1.5Zm8.085-8.995a.75.75 0 1 0-.75-1.299 12.81 12.81 0 0 0-3.558 3.05L11.03 8.47a.75.75 0 0 0-1.06 0l-3 3a.75.75 0 1 0 1.06 1.06l2.47-2.47 1.617 1.618a.75.75 0 0 0 1.146-.102 11.312 11.312 0 0 1 3.612-3.321Z" clip-rule="evenodd"></path></symbol>
  <symbol id="hero-chart-bar" viewBox="0 0 24 24" fill="currentColor"><path d="M18.375 2.25c-1.035 0-1.875.84-1.875 1.875v15.75c0 1.035.84 1.875 1.875 1.875h.75c1.035 0 1.875-.84 1.875-1.875V4.125c0-1.036-.84-1.875-1.875-1.875h-.75ZM9.75 8.625c0-1.036.84-1.875 1.875-1.875h.75c1.036 0 1.875.84 1.875 1.875v11.25c0 1.035-.84 1.875-1.875 1.875h-.75a1.875 1.875 0 0 1-1.875-1.875V8.625ZM3 13.125c0-1.036.84-1.875 1.875-1.875h.75c1.036 0 1.875.84 1.875 1.875v6.75c0 1.035-.84 1.875-1.875 1.875h-.75A1.875 1.875 0 0 1 3 19.875v-6.75Z"></path></symbol>
  <symbol id="hero-magnifying-glass" viewBox="0 0 24 24" fill="currentColor"><path fill-rule="evenodd" d="M10.5 3.75a6.75 6.75 0 1 0 0 13.5 6.75 6.75 0 0 0 0-13.5ZM2.25 10.5a8.25 8.25 0 1 1 14.59 5.28l4.69 4.69a.75.75 0 1 1-1.06 1.06l-4.69-4.69A8.25 8.25 0 0 1 2.25 10.5Z" clip-rule="evenodd"></path></symbol>
  <symbol id="hero-users" viewBox="0 0 24 24" fill="currentColor"><path d="M4.5 6.375a4.125 4.125 0 1 1 8.25 0 4.125 4.125 0 0 1-8.25 0ZM14.25 8.625a3.375 3.375 0 1 1 6.75 0 3.375 3.375 0 0 1-6.75 0ZM1.5 19.125a7.125 7.125 0 0 1 14.25 0v.003l-.001.119a.75.75 0 0 1-.363.63 13.067 13.067 0 0 1-6.761 1.873c-2.472 0-4.786-.684-6.76-1.873a.75.75 0 0 1-.364-.63l-.001-.122ZM17.25 19.128l-.001.144a2.25 2.25 0 0 1-.233.96 10.088 10.088 0 0 0 5.06-1.01.75.75 0 0 0 .42-.643 4.875 4.875 0 0 0-6.957-4.611 8.586 8.586 0 0 1 1.71 5.157v.003Z"></path></symbol>
  <symbol id="hero-building-storefront" viewBox="0 0 24 24" fill="currentColor"><path d="M5.223 2.25c-.497 0-.974.198-1.325.55l-1.3 1.298A3.75 3.75 0 0 0 7.5 9.75c.627.47 1.406.75 2.25.75.844 0 1.624-.28 2.25-.75.626.47 1.406.75 2.25.75.844 0 1.623-.28 2.25-.75a3.75 3.75 0 0 0 4.902-5.652l-1.3-1.299a1.875 1.875 0 0 0-1.325-.549H5.223Z"></path><path fill-rule="evenodd" d="M3 20.25v-8.755c1.42.674 3.08.673 4.5 0A5.234 5.234 0 0 0 9.75 12c.804 0 1.568-.182 2.25-.506a5.234 5.234 0 0 0 2.25.506c.804 0 1.567-.182 2.25-.506 1.42.674 3.08.675 4.5.001v8.755h.75a.75.75 0 0 1 0 1.5H2.25a.75.75 0 0 1 0-1.5H3Zm3-6a.75.75 0 0 1 .75-.75h3a.75.75 0 0 1 .75.75v3a.75.75 0 0 1-.75.75h-3a.75.75 0 0 1-.75-.75v-3Zm8.25-.75a.75.75 0 0 0-.75.75v5.25c0 .414.336.75.75.75h3a.75.75 0 0 0 .75-.75v-5.25a.75.75 0 0 0-.75-.75h-3Z" clip-rule="evenodd"></path></symbol>
  <symbol id="hero-computer-desktop" viewBox="0 0 24 24" fill="currentColor"><path fill-rule="evenodd" d="M2.25 5.25a3 3 0 0 1 3-3h13.5a3 3 0 0 1 3 3V15a3 3 0 0 1-3 3h-3v.257c0 .597.237 1.17.659 1.591l.621.622a.75.75 0 0 1-.53 1.28h-9a.75.75 0 0 1-.53-1.28l.621-.622a2.25 2.25 0 0 0 .659-1.59V18h-3a3 3 0 0 1-3-3V5.25Zm1.5 0v7.5a1.5 1.5 0 0 0 1.5 1.5h13.5a1.5 1.5 0 0 0 1.5-1.5v-7.5a1.5 1.5 0 0 0-1.5-1.5H5.25a1.5 1.5 0 0 0-1.5 1.5Z" clip-rule="evenodd"></path></symbol>
  <symbol id="hero-globe-alt" viewBox="0 0 24 24" fill="currentColor"><path d="M21.721 12.752a9.711 9.711 0 0 0-.945-5.003 12.754 12.754 0 0 1-4.339 2.708 18.991 18.991 0 0 1-.214 4.772 17.165 17.165 0 0 0 5.498-2.477ZM14.634 15.55a17.324 17.324 0 0 0 .332-4.647c-.952.227-1.945.347-2.966.347-1.021 0-2.014-.12-2.966-.347a17.515 17.515 0 0 0 .332 4.647 17.385 17.385 0 0 0 5.268 0ZM9.772 17.119a18.963 18.963 0 0 0 4.456 0A17.182 17.182 0 0 1 12 21.724a17.18 17.18 0 0 1-2.228-4.605ZM7.777 15.23a18.87 18.87 0 0 1-.214-4.774 12.753 12.753 0 0 1-4.34-2.708 9.711 9.711 0 0 0-.944 5.004 17.165 17.165 0 0 0 5.498 2.477ZM21.356 14.752a9.765 9.765 0 0 1-7.478 6.817 18.64 18.64 0 0 0 1.988-4.718 18.627 18.627 0 0 0 5.49-2.098ZM2.644 14.752c1.682.971 3.53 1.688 5.49 2.099a18.64 18.64 0 0 0 1.988 4.718 9.765 9.765 0 0 1-7.478-6.816ZM13.878 2.43a9.755 9.755 0 0 1 6.116 3.986 11.267 11.267 0 0 1-3.746 2.504 18.63 18.63 0 0 0-2.37-6.49ZM12 2.276a17.152 17.152 0 0 1 2.805 7.121c-.897.23-1.837.353-2.805.353-.968 0-1.908-.122-2.805-.353A17.151 17.151 0 0 1 12 2.276ZM10.122 2.43a18.629 18.629 0 0 0-2.37 6.49 11.266 11.266 0 0 1-3.746-2.504 9.754 9.754 0 0 1 6.116-3.985Z"></path></symbol>
  <symbol id="hero-language" viewBox="0 0 24 24" fill="currentColor"><path fill-rule="evenodd" d="M9 2.25a.75.75 0 0 1 .75.75v1.506a49.384 49.384 0 0 1 5.343.371.75.75 0 1 1-.186 1.489c-.66-.083-1.323-.151-1.99-.206a18.67 18.67 0 0 1-2.97 6.323c.318.384.65.753 1 1.107a.75.75 0 0 1-1.07 1.052A18.902 18.902 0 0 1 9 13.687a18.823 18.823 0 0 1-5.656 4.482.75.75 0 0 1-.688-1.333 17.323 17.323 0 0 0 5.396-4.353A18.72 18.72 0 0 1 5.89 8.598a.75.75 0 0 1 1.388-.568A17.21 17.21 0 0 0 9 11.224a17.168 17.168 0 0 0 2.391-5.165 48.04 48.04 0 0 0-8.298.307.75.75 0 0 1-.186-1.489 49.159 49.159 0 0 1 5.343-.371V3A.75.75 0 0 1 9 2.25ZM15.75 9a.75.75 0 0 1 .68.433l5.25 11.25a.75.75 0 1 1-1.36.634l-1.198-2.567h-6.744l-1.198 2.567a.75.75 0 0 1-1.36-.634l5.25-11.25A.75.75 0 0 1 15.75 9Zm-2.672 8.25h5.344l-2.672-5.726-2.672 5.726Z" clip-rule="evenodd"></path></symbol>
  <symbol id="hero-moon" viewBox="0 0 24 24" fill="currentColor"><path fill-rule="evenodd" d="M9.528 1.718a.75.75 0 0 1 .162.819A8.97 8.97 0 0 0 9 6a9 9 0 0 0 9 9 8.97 8.97 0 0 0 3.463-.69.75.75 0 0 1 .981.98 10.503 10.503 0 0 1-9.694 6.46c-5.799 0-10.5-4.7-10.5-10.5 0-4.368 2.667-8.112 6.46-9.694a.75.75 0 0 1 .818.162Z" clip-rule="evenodd"></path></symbol>
  <symbol id="hero-chat-bubble-text" viewBox="0 0 24 24" fill="currentColor"><path fill-rule="evenodd" d="M4.848 2.771A49.144 49.144 0 0 1 12 2.25c2.43 0 4.817.178 7.152.52 1.978.292 3.348 2.024 3.348 3.97v6.02c0 1.946-1.37 3.678-3.348 3.97a48.901 48.901 0 0 1-3.476.383.39.39 0 0 0-.297.17l-2.755 4.133a.75.75 0 0 1-1.248 0l-2.755-4.133a.39.39 0 0 0-.297-.17 48.9 48.9 0 0 1-3.476-.384c-1.978-.29-3.348-2.024-3.348-3.97V6.741c0-1.946 1.37-3.68 3.348-3.97ZM6.75 8.25a.75.75 0 0 1 .75-.75h9a.75.75 0 0 1 0 1.5h-9a.75.75 0 0 1-.75-.75Zm.75 2.25a.75.75 0 0 0 0 1.5H12a.75.75 0 0 0 0-1.5H7.5Z" clip-rule="evenodd"></path></symbol>
  <symbol id="hero-check-circle" viewBox="0 0 24 24" fill="currentColor"><path fill-rule="evenodd" d="M2.25 12c0-5.385 4.365-9.75 9.75-9.75s9.75 4.365 9.75 9.75-4.365 9.75-9.75 9.75S2.25 17.385 2.25 12Zm13.36-1.814a.75.75 0 1 0-1.22-.872l-3.236 4.53L9.53 12.22a.75.75 0 0 0-1.06 1.06l2.25 2.25a.75.75 0 0 0 1.14-.094l3.75-5.25Z" clip-rule="evenodd"></path></symbol>
  <symbol id="hero-camera" viewBox="0 0 24 24" fill="currentColor"><path d="M12 9a3.75 3.75 0 1 0 0 7.5A3.75 3.75 0 0 0 12 9Z"></path><path fill-rule="evenodd" d="M9.344 3.071a49.52 49.52 0 0 1 5.312 0c.967.052 1.83.585 2.332 1.39l.821 1.317c.24.383.645.643 1.11.71.386.054.77.113 1.152.177 1.432.239 2.429 1.493 2.429 2.909V18a3 3 0 0 1-3 3h-15a3 3 0 0 1-3-3V9.574c0-1.416.997-2.67 2.429-2.909.382-.064.766-.123 1.151-.178a1.56 1.56 0 0 0 1.11-.71l.822-1.315a2.942 2.942 0 0 1 2.332-1.39ZM6.75 12.75a5.25 5.25 0 1 1 10.5 0 5.25 5.25 0 0 1-10.5 0Zm12-1.5a.75.75 0 1 0 0-1.5.75.75 0 0 0 0 1.5Z" clip-rule="evenodd"></path></symbol>
  <symbol id="hero-chat-bubbles" viewBox="0 0 24 24" fill="currentColor"><path d="M4.913 2.658c2.075-.27 4.19-.408 6.337-.408 2.147 0 4.262.139 6.337.408 1.922.25 3.291 1.861 3.405 3.727a4.403 4.403 0 0 0-1.032-.211 50.89 50.89 0 0 0-8.42 0c-2.358.196-4.04 2.19-4.04 4.434v4.286a4.47 4.47 0 0 0 2.433 3.984L7.28 21.53A.75.75 0 0 1 6 21v-4.03a48.527 48.527 0 0 1-1.087-.128C2.905 16.58 1.5 14.833 1.5 12.862V6.638c0-1.97 1.405-3.718 3.413-3.979Z"></path><path d="M15.75 7.5c-1.376 0-2.739.057-4.086.169C10.124 7.797 9 9.103 9 10.609v4.285c0 1.507 1.128 2.814 2.67 2.94 1.243.102 2.5.157 3.768.165l2.782 2.781a.75.75 0 0 0 1.28-.53v-2.39l.33-.026c1.542-.125 2.67-1.433 2.67-2.94v-4.286c0-1.505-1.125-2.811-2.664-2.94A49.392 49.392 0 0 0 15.75 7.5Z"></path></symbol>
  <symbol id="hero-briefcase" viewBox="0 0 24 24" fill="currentColor"><path fill-rule="evenodd" d="M7.5 5.25a3 3 0 0 1 3-3h3a3 3 0 0 1 3 3v.205c.933.085 1.857.197 2.774.334 1.454.218 2.476 1.483 2.476 2.917v3.033c0 1.211-.734 2.352-1.936 2.752A24.726 24.726 0 0 1 12 15.75c-2.73 0-5.357-.442-7.814-1.259-1.202-.4-1.936-1.541-1.936-2.752V8.706c0-1.434 1.022-2.7 2.476-2.917A48.814 48.814 0 0 1 7.5 5.455V5.25Zm7.5 0v.09a49.488 49.488 0 0 0-6 0v-.09a1.5 1.5 0 0 1 1.5-1.5h3a1.5 1.5 0 0 1 1.5 1.5Zm-3 8.25a.75.75 0 1 0 0-1.5.75.75 0 0 0 0 1.5Z" clip-rule="evenodd"></path><path d="M3 18.4v-2.796a4.3 4.3 0 0 0 .713.31A26.226 26.226 0 0 0 12 17.25c2.892 0 5.68-.468 8.287-1.335.252-.084.49-.189.713-.311V18.4c0 1.452-1.047 2.728-2.523 2.923-2.12.282-4.282.427-6.477.427a49.19 49.19 0 0 1-6.477-.427C4.047 21.128 3 19.852 3 18.4Z"></path></symbol>
  <symbol id="hero-adjustments-horizontal" viewBox="0 0 24 24" fill="currentColor"><path d="M18.75 12.75h1.5a.75.75 0 0 0 0-1.5h-1.5a.75.75 0 0 0 0 1.5ZM12 6a.75.75 0 0 1 .75-.75h7.5a.75.75 0 0 1 0 1.5h-7.5A.75.75 0 0 1 12 6ZM12 18a.75.75 0 0 1 .75-.75h7.5a.75.75 0 0 1 0 1.5h-7.5A.75.75 0 0 1 12 18ZM3.75 6.75h1.5a.75.75 0 1 0 0-1.5h-1.5a.75.75 0 0 0 0 1.5ZM5.25 18.75h-1.5a.75.75 0 0 1 0-1.5h1.5a.75.75 0 0 1 0 1.5ZM3 12a.75.75 0 0 1 .75-.75h7.5a.75.75 0 0 1 0 1.5h-7.5A.75.75 0 0 1 3 12ZM9 3.75a2.25 2.25 0 1 0 0 4.5 2.25 2.25 0 0 0 0-4.5ZM12.75 12a2.25 2.25 0 1 1 4.5 0 2.25 2.25 0 0 1-4.5 0ZM9 15.75a2.25 2.25 0 1 0 0 4.5 2.25 2.25 0 0 0 0-4.5Z"></path></symbol>
</svg>
