<svg xmlns="http://www.w3.org/2000/svg" width="0" height="0" aria-hidden="true" focusable="false">
  <symbol id="ix-mobile" viewBox="0 0 24 24">
    <rect x="7" y="2.75" width="10" height="18.5" rx="3"/>
    <path d="M10 6.5h4"/>
    <circle cx="12" cy="17.5" r="1"/>
  </symbol>
  <symbol id="ix-play" viewBox="0 0 24 24">
    <rect x="3.5" y="3.5" width="17" height="17" rx="4"/>
    <path d="m10 8.5 5 3.5-5 3.5z"/>
  </symbol>
  <symbol id="ix-scan" viewBox="0 0 24 24">
    <path d="M8 4H6a2 2 0 0 0-2 2v2"/>
    <path d="M16 4h2a2 2 0 0 1 2 2v2"/>
    <path d="M8 20H6a2 2 0 0 1-2-2v-2"/>
    <path d="M16 20h2a2 2 0 0 0 2-2v-2"/>
    <path d="M9 8v8"/>
    <path d="M12 7v10"/>
    <path d="M15 8v8"/>
  </symbol>
  <symbol id="ix-search" viewBox="0 0 24 24">
    <circle cx="11" cy="11" r="6"/>
    <path d="m20 20-3.5-3.5"/>
  </symbol>
  <symbol id="ix-lock" viewBox="0 0 24 24">
    <rect x="5" y="10" width="14" height="10" rx="2.5"/>
    <path d="M8.5 10V7.75a3.5 3.5 0 1 1 7 0V10"/>
  </symbol>
  <symbol id="ix-box" viewBox="0 0 24 24">
    <path d="m12 3 8 4.5v9L12 21l-8-4.5v-9z"/>
    <path d="m4 7.5 8 4.5 8-4.5"/>
    <path d="M12 12v9"/>
  </symbol>
  <symbol id="ix-add" viewBox="0 0 24 24">
    <path d="M12 5v14"/>
    <path d="M5 12h14"/>
  </symbol>
  <symbol id="ix-barcode" viewBox="0 0 24 24">
    <path d="M5 6v12"/>
    <path d="M8 7v10"/>
    <path d="M11 6v12"/>
    <path d="M14 8v8"/>
    <path d="M17 6v12"/>
    <path d="M20 7v10"/>
  </symbol>
  <symbol id="ix-money" viewBox="0 0 24 24">
    <path d="M12 3v18"/>
    <path d="M16 7.5c0-1.93-1.79-3.5-4-3.5s-4 1.57-4 3.5 1.79 3.5 4 3.5 4 1.57 4 3.5-1.79 3.5-4 3.5-4-1.57-4-3.5"/>
  </symbol>
  <symbol id="ix-document" viewBox="0 0 24 24">
    <path d="M8 3.5h6l4 4V19a1.5 1.5 0 0 1-1.5 1.5h-8A1.5 1.5 0 0 1 7 19V5A1.5 1.5 0 0 1 8.5 3.5Z"/>
    <path d="M14 3.5V8h4"/>
    <path d="M10 12h4"/>
    <path d="M10 15.5h4"/>
  </symbol>
  <symbol id="ix-chart-up" viewBox="0 0 24 24">
    <path d="M4 19.5h16"/>
    <path d="m7 14 3-3 3 2.5 4-5.5"/>
    <path d="M17 8h3v3"/>
  </symbol>
  <symbol id="ix-chart-bar" viewBox="0 0 24 24">
    <path d="M4 19.5h16"/>
    <path d="M7 16v-4"/>
    <path d="M12 16V8"/>
    <path d="M17 16v-6"/>
  </symbol>
  <symbol id="ix-shop" viewBox="0 0 24 24">
    <path d="M4.5 9.5 6.5 5h11l2 4.5"/>
    <path d="M5.5 9.5h13v8.5A1.5 1.5 0 0 1 17 19.5H7A1.5 1.5 0 0 1 5.5 18Z"/>
    <path d="M9.5 13h5"/>
  </symbol>
  <symbol id="ix-monitor" viewBox="0 0 24 24">
    <rect x="3.5" y="4.5" width="17" height="11" rx="2.5"/>
    <path d="M9.5 19.5h5"/>
    <path d="M12 15.5v4"/>
  </symbol>
  <symbol id="ix-users" viewBox="0 0 24 24">
    <circle cx="9" cy="9" r="3"/>
    <path d="M4.5 18a4.5 4.5 0 0 1 9 0"/>
    <circle cx="17" cy="10" r="2.5"/>
    <path d="M14.5 18a3.5 3.5 0 0 1 5.5-2.8"/>
  </symbol>
  <symbol id="ix-globe" viewBox="0 0 24 24">
    <circle cx="12" cy="12" r="8.5"/>
    <path d="M3.5 12h17"/>
    <path d="M12 3.5c2.7 2.3 4.3 5.3 4.3 8.5S14.7 18.2 12 20.5c-2.7-2.3-4.3-5.3-4.3-8.5S9.3 5.8 12 3.5Z"/>
  </symbol>
  <symbol id="ix-language" viewBox="0 0 24 24">
    <path d="M4.5 7.5H12"/>
    <path d="M8.25 7.5c0 4.5-1.75 7.5-3.75 9"/>
    <path d="M8.25 7.5c0 4.5 1.75 7.5 3.75 9"/>
    <path d="M13 9.5h6.5"/>
    <path d="m16.25 9.5-3 8"/>
    <path d="m19.25 17.5-3-8"/>
  </symbol>
  <symbol id="ix-moon" viewBox="0 0 24 24">
    <path d="M19 14.5A7.5 7.5 0 0 1 9.5 5a8.5 8.5 0 1 0 9.5 9.5Z"/>
  </symbol>
  <symbol id="ix-message" viewBox="0 0 24 24">
    <path d="M6 5h12a2.5 2.5 0 0 1 2.5 2.5v7A2.5 2.5 0 0 1 18 17H11l-4 3v-3H6A2.5 2.5 0 0 1 3.5 14.5v-7A2.5 2.5 0 0 1 6 5Z"/>
    <path d="M8 10h8"/>
    <path d="M8 13h5"/>
  </symbol>
  <symbol id="ix-bell" viewBox="0 0 24 24">
    <path d="M6.5 16.5h11"/>
    <path d="M8 16.5V10a4 4 0 1 1 8 0v6.5"/>
    <path d="M10 19a2 2 0 0 0 4 0"/>
  </symbol>
  <symbol id="ix-arrow-right" viewBox="0 0 24 24">
    <path d="M9 6l6 6-6 6"/>
  </symbol>
  <symbol id="ix-tick-circle" viewBox="0 0 24 24">
    <path d="M12 22a10 10 0 1 0 0-20 10 10 0 0 0 0 20Z"/>
    <path d="m7.75 12 2.83 2.83 5.67-5.66"/>
  </symbol>
  <symbol id="ix-instagram" viewBox="0 0 24 24">
    <path fill-rule="evenodd" clip-rule="evenodd" d="M8.25 2.75h7.5a5.5 5.5 0 0 1 5.5 5.5v7.5a5.5 5.5 0 0 1-5.5 5.5h-7.5a5.5 5.5 0 0 1-5.5-5.5v-7.5a5.5 5.5 0 0 1 5.5-5.5Zm0 1.85A3.65 3.65 0 0 0 4.6 8.25v7.5a3.65 3.65 0 0 0 3.65 3.65h7.5a3.65 3.65 0 0 0 3.65-3.65v-7.5a3.65 3.65 0 0 0-3.65-3.65h-7.5ZM12 8.05a3.95 3.95 0 1 0 0 7.9 3.95 3.95 0 0 0 0-7.9ZM9.85 12a2.15 2.15 0 1 1 4.3 0 2.15 2.15 0 0 1-4.3 0Zm7.08-3.58a1.08 1.08 0 1 0 0-2.16 1.08 1.08 0 0 0 0 2.16Z"/>
  </symbol>
  <symbol id="ix-twitter" viewBox="0 0 24 24">
    <path d="M16.99 3.75h3.02l-6.6 7.54 7.76 10.26h-6.08l-4.76-6.22-5.45 6.22H1.86l7.06-8.07L1.48 3.75h6.23l4.3 5.69 4.98-5.69Zm-1.06 15.99h1.67L6.8 5.47H5l10.93 14.27Z"/>
  </symbol>
  <symbol id="ix-threads" viewBox="0 0 24 24">
    <path d="M12.23 2.25c3.16 0 5.58 1.16 7.2 3.45 1.45 2.06 2.2 4.92 2.2 8.5 0 4.67-3.06 7.55-8.1 7.55-3.3 0-5.88-.98-7.67-2.9-1.66-1.78-2.5-4.28-2.5-7.43 0-3.17.76-5.58 2.25-7.15 1.48-1.34 3.71-2.02 6.62-2.02Zm0 1.87c-2.37 0-4.14.52-5.27 1.55-1.16 1.22-1.74 3.15-1.74 5.75 0 2.65.67 4.7 1.98 6.1 1.42 1.52 3.55 2.29 6.33 2.29 4 0 6.23-2 6.23-5.61 0-3.18-.62-5.67-1.85-7.4-1.26-1.78-3.18-2.68-5.68-2.68Z"/>
    <path d="M12.3 7.05c2.74 0 4.67 1.58 5.18 4.18l1.7.73-.75 1.72-.88-.38v.16c0 2.33-1.94 4.03-4.8 4.03-2.46 0-4.24-1.25-4.24-3.2 0-1.96 1.82-3.15 4.82-3.15.74 0 1.45.08 2.1.22-.44-1.52-1.54-2.39-3.13-2.39-1.22 0-2.16.36-2.96 1.14L8.05 8.76c1.1-1.13 2.54-1.71 4.25-1.71Zm.45 8.59c1.73 0 2.92-.83 2.92-2.1v-.32a7.91 7.91 0 0 0-2.34-.32c-1.88 0-2.94.51-2.94 1.39 0 .8.94 1.35 2.36 1.35Z"/>
  </symbol>
  <symbol id="ix-reddit" viewBox="0 0 24 24">
    <path d="M15.78 3.52a.92.92 0 0 1 1.12-.66l3.18.82a.92.92 0 0 1 .68.89v2.05a2.2 2.2 0 1 1-1.84 0V5.28l-1.6-.42-.72 2.87a10.6 10.6 0 0 1 2.84 1.18 3.03 3.03 0 0 1 4.1 4.45c.02.16.03.33.03.49 0 3.8-5.18 6.88-11.57 6.88S.43 17.65.43 13.85c0-.17 0-.33.03-.49a3.03 3.03 0 0 1 4.1-4.45 10.72 10.72 0 0 1 10.25-1.71l.97-3.68ZM6.8 13.55a1.6 1.6 0 1 0 3.2 0 1.6 1.6 0 0 0-3.2 0Zm7.2 0a1.6 1.6 0 1 0 3.2 0 1.6 1.6 0 0 0-3.2 0Zm-5.15 3.12a.75.75 0 0 0-.03 1.06c.83.88 1.93 1.32 3.18 1.32 1.25 0 2.35-.44 3.18-1.32a.75.75 0 1 0-1.09-1.03c-.54.57-1.24.85-2.09.85-.85 0-1.55-.28-2.09-.85a.75.75 0 0 0-1.06-.03Z"/>
  </symbol>
  <symbol id="ix-linkedin" viewBox="0 0 24 24">
    <path d="M7 10v8"/>
    <path d="M12 18v-4.5A2.5 2.5 0 0 1 14.5 11 2.5 2.5 0 0 1 17 13.5V18"/>
    <path d="M12 13a3 3 0 0 1 2.75-2"/>
    <circle cx="7" cy="7" r="1.25" fill="currentColor" stroke="none"/>
  </symbol>
  <symbol id="ix-solid-box" viewBox="0 0 24 24">
    <path d="M12 2.75a2 2 0 0 1 .97.25l7 3.9A2 2 0 0 1 21 8.64v6.72a2 2 0 0 1-1.03 1.74l-7 3.9a2 2 0 0 1-1.94 0l-7-3.9A2 2 0 0 1 3 15.36V8.64A2 2 0 0 1 4.03 6.9l7-3.9A2 2 0 0 1 12 2.75Z"/>
    <path d="m4.7 7.55 7.3 4.08 7.3-4.08" fill="#fff" fill-opacity=".3"/>
    <path d="M12 11.63v8.97" fill="#fff" fill-opacity=".3"/>
  </symbol>
  <symbol id="ix-solid-add" viewBox="0 0 24 24">
    <path d="M12 3.5a1.5 1.5 0 0 1 1.5 1.5v5.5H19a1.5 1.5 0 1 1 0 3h-5.5V19a1.5 1.5 0 1 1-3 0v-5.5H5a1.5 1.5 0 1 1 0-3h5.5V5A1.5 1.5 0 0 1 12 3.5Z"/>
  </symbol>
  <symbol id="ix-solid-barcode" viewBox="0 0 24 24">
    <path d="M4 5.5h1.8v13H4zm3 1h1.2v11H7zm2.7-1h2v13h-2zm3.7 1h1.1v11h-1.1zm2.6-1h2v13h-2zm3.4 1H21v11h-1.1z"/>
  </symbol>
  <symbol id="ix-solid-money" viewBox="0 0 24 24">
    <path d="M12.5 2.75a1.5 1.5 0 0 0-3 0V4.3a4.83 4.83 0 0 0 .9 9.58h2.2a1.83 1.83 0 1 1 0 3.65H7.75a1.5 1.5 0 0 0 0 3h1.75v1a1.5 1.5 0 0 0 3 0v-1.18a4.83 4.83 0 0 0-.9-9.57H9.4a1.83 1.83 0 0 1 0-3.66h4.85a1.5 1.5 0 0 0 0-3H12.5V2.75Z"/>
  </symbol>
  <symbol id="ix-solid-document" viewBox="0 0 24 24">
    <path d="M8.5 3.5A2.5 2.5 0 0 0 6 6v12a2.5 2.5 0 0 0 2.5 2.5h7A2.5 2.5 0 0 0 18 18V9.06a2.5 2.5 0 0 0-.73-1.77l-3.06-3.06A2.5 2.5 0 0 0 12.44 3.5H8.5Z"/>
    <path d="M9.5 10.25h5M9.5 13.5h5" stroke="#fff" stroke-width="1.8" stroke-linecap="round"/>
    <path d="M13 4.4v3.2a1 1 0 0 0 1 1h3.2" stroke="#fff" stroke-width="1.6" stroke-linecap="round" stroke-linejoin="round" fill="none"/>
  </symbol>
  <symbol id="ix-solid-chart-up" viewBox="0 0 24 24">
    <path d="M4 19.5a1.5 1.5 0 0 1 0-3h1.54l3.36-3.36a1.5 1.5 0 0 1 1.84-.23l2.16 1.45 4.39-5.48A1.5 1.5 0 0 1 18.5 8.3h1V6.5a1.5 1.5 0 1 1 3 0V11A1.5 1.5 0 0 1 21 12.5h-4.5a1.5 1.5 0 1 1 0-3h.43l-3.57 4.46a1.5 1.5 0 0 1-1.98.31l-2.35-1.58L7.62 16.5H20a1.5 1.5 0 1 1 0 3H4Z"/>
  </symbol>
  <symbol id="ix-solid-chart-bar" viewBox="0 0 24 24">
    <path d="M4 19.5a1.5 1.5 0 1 1 0-3h.5V13A1.5 1.5 0 0 1 6 11.5h1A1.5 1.5 0 0 1 8.5 13v3.5h2V8A1.5 1.5 0 0 1 12 6.5h1A1.5 1.5 0 0 1 14.5 8v8.5h2V10A1.5 1.5 0 0 1 18 8.5h1A1.5 1.5 0 0 1 20.5 10v6.5h.5a1.5 1.5 0 1 1 0 3H4Z"/>
  </symbol>
  <symbol id="ix-solid-search" viewBox="0 0 24 24">
    <path d="M10.75 3.5a7.25 7.25 0 1 0 4.56 12.88l3.15 3.16a1.5 1.5 0 0 0 2.12-2.12l-3.16-3.15A7.25 7.25 0 0 0 10.75 3.5Z"/>
  </symbol>
</svg>
