<svg width="356" height="80" viewBox="0 0 356 80" fill="none" xmlns="http://www.w3.org/2000/svg">
<path fill-rule="evenodd" clip-rule="evenodd" d="M130.839 58.185C132.35 58.185 133.577 56.9616 133.577 55.4497C133.577 53.9378 132.35 52.706 130.839 52.706C124.903 52.706 111.365 52.706 111.365 52.706C109.919 52.706 108.524 52.4129 107.181 51.8271C105.838 51.2413 104.667 50.4316 103.668 49.3978C102.67 48.364 101.878 47.1578 101.292 45.7794C100.707 44.401 100.414 42.9193 100.414 41.3342V35.9585C100.414 34.4423 100.707 33.012 101.292 31.6681C101.49 31.2115 101.714 30.7764 101.959 30.3586C102.442 29.5488 103.01 28.8166 103.668 28.1533C104.667 27.154 105.838 26.3784 107.181 25.8271C108.524 25.2757 109.919 25.0002 111.365 25.0002H133.99C135.437 25.0002 136.832 25.2757 138.175 25.8271C139.518 26.3784 140.689 27.154 141.687 28.1533C142.346 28.8166 142.914 29.5488 143.392 30.3586C143.642 30.7764 143.866 31.2115 144.064 31.6681C144.649 33.012 144.942 34.4423 144.942 35.9585V38.8444H136.87C135.278 38.8444 133.99 37.5523 133.99 35.9585H133.577C133.577 35.9585 119.961 35.9585 114.051 35.9585C113.337 35.9585 112.657 36.2427 112.153 36.7467C111.649 37.2507 111.365 37.9355 111.365 38.6462V38.6507C111.365 39.3614 111.649 40.0462 112.153 40.5502C112.657 41.0542 113.337 41.3342 114.051 41.3342C119.961 41.3342 133.577 41.3342 133.577 41.3342C135.092 41.3342 136.539 41.6443 137.916 42.2646C139.294 42.8849 140.499 43.7119 141.532 44.7457C142.565 45.7795 143.392 46.9854 144.012 48.3638C144.632 49.7422 144.942 51.1898 144.942 52.706V58.185C144.942 59.7701 144.632 61.2174 144.012 62.5269C143.814 62.9447 143.599 63.3453 143.358 63.7287C143.37 63.7502 143.383 63.7676 143.392 63.7891C142.914 64.5989 142.346 65.3311 141.687 65.9902C140.689 66.9895 139.518 67.7648 138.175 68.3161C136.832 68.8675 135.437 69.1432 133.99 69.1432H111.365C109.919 69.1432 108.524 68.8675 107.181 68.3161C105.838 67.7648 104.667 66.9895 103.668 65.9902C103.01 65.3311 102.442 64.5989 101.959 63.7891C101.938 63.7504 101.912 63.7071 101.891 63.664C101.671 63.2849 101.473 62.8886 101.292 62.4751C100.707 61.1312 100.414 59.7012 100.414 58.185V55.3033H108.485C110.074 55.3033 111.365 56.5955 111.365 58.185C111.365 58.185 124.903 58.185 130.839 58.185Z" fill="#0A1848"/>
<path d="M163.893 55.4071C163.893 56.1738 164.194 56.9061 164.736 57.4488C165.275 57.9873 166.006 58.2888 166.773 58.2888H183.328C184.09 58.2888 184.822 57.9873 185.364 57.4488C185.902 56.9061 186.208 56.1738 186.208 55.4071V38.8449C186.208 38.0782 185.902 37.3459 185.364 36.8032C184.822 36.2648 184.09 35.9587 183.328 35.9587H166.773C166.006 35.9587 165.275 36.2648 164.736 36.8032C164.194 37.3459 163.893 38.0782 163.893 38.8449V55.4071ZM186.208 25.0005C187.723 25.0005 189.17 25.2762 190.547 25.8276C191.925 26.379 193.13 27.1545 194.163 28.1538C195.196 29.1531 196.023 30.3247 196.643 31.6686C197.262 33.0126 197.572 34.4425 197.572 35.9587V58.2888C197.572 59.874 197.28 61.3213 196.694 62.6307C196.109 63.9402 195.3 65.0947 194.266 66.094C193.233 67.0934 192.045 67.8686 190.702 68.42C189.359 68.9713 187.964 69.2471 186.518 69.2471H163.893C162.446 69.2471 161.069 68.9713 159.76 68.42C158.452 67.8686 157.281 67.0934 156.248 66.094C155.215 65.0947 154.405 63.9402 153.82 62.6307C153.234 61.3213 152.942 59.874 152.942 58.2888V35.9587C152.942 34.4425 153.234 33.0126 153.82 31.6686C154.405 30.3247 155.215 29.1531 156.248 28.1538C157.281 27.1545 158.452 26.379 159.76 25.8276C161.069 25.2762 162.446 25.0005 163.893 25.0005H186.208Z" fill="#0A1848"/>
<path d="M216.524 55.4071C216.524 56.1738 216.825 56.9061 217.367 57.4488C217.905 57.9873 218.637 58.2888 219.403 58.2888H235.959C236.721 58.2888 237.453 57.9873 237.995 57.4488C238.533 56.9061 238.839 56.1738 238.839 55.4071V38.8449C238.839 38.0782 238.533 37.3459 237.995 36.8032C237.453 36.2648 236.721 35.9587 235.959 35.9587H219.403C218.637 35.9587 217.905 36.2648 217.367 36.8032C216.825 37.3459 216.524 38.0782 216.524 38.8449V55.4071ZM238.839 25.0005C240.354 25.0005 241.801 25.2762 243.178 25.8276C244.556 26.379 245.761 27.1545 246.794 28.1538C247.827 29.1531 248.654 30.3247 249.274 31.6686C249.894 33.0126 250.203 34.4425 250.203 35.9587V58.2888C250.203 59.874 249.911 61.3213 249.325 62.6307C248.74 63.9402 247.931 65.0947 246.898 66.094C245.864 67.0934 244.676 67.8686 243.333 68.42C241.99 68.9713 240.595 69.2471 239.149 69.2471H216.524C215.077 69.2471 213.7 68.9713 212.391 68.42C211.082 67.8686 209.912 67.0934 208.879 66.094C207.845 65.0947 207.036 63.9402 206.451 62.6307C205.865 61.3213 205.573 59.874 205.573 58.2888V35.9587C205.573 34.4425 205.865 33.0126 206.451 31.6686C207.036 30.3247 207.845 29.1531 208.879 28.1538C209.912 27.1545 211.082 26.379 212.391 25.8276C213.7 25.2762 215.077 25.0005 216.524 25.0005H238.839Z" fill="#0A1848"/>
<path fill-rule="evenodd" clip-rule="evenodd" d="M303.041 0V69.247H269.568C267.984 69.247 266.503 68.9713 265.125 68.4199C263.748 67.8685 262.543 67.0933 261.509 66.094C260.476 65.0946 259.667 63.9228 259.082 62.5789C258.496 61.2349 258.203 59.7706 258.203 58.1854V35.8554C258.203 32.6851 259.305 30.1006 261.509 28.1019C263.713 26.1033 266.4 25.104 269.568 25.104H291.987V3.76458C291.987 2.76524 292.383 1.80906 293.088 1.10264C293.794 0.396208 294.75 0 295.749 0C298.952 0 303.041 0 303.041 0ZM291.987 58.1854V35.8554H272.448C271.681 35.8554 270.95 36.1611 270.411 36.6996C269.869 37.2423 269.568 37.9746 269.568 38.7413C269.568 43.0229 269.568 51.0221 269.568 55.3037C269.568 56.0704 269.869 56.8027 270.411 57.3454C270.95 57.8839 271.681 58.1854 272.448 58.1854C278.5 58.1854 291.987 58.1854 291.987 58.1854Z" fill="#0A1848"/>
<path d="M344.617 36.3724H325.079C324.312 36.3724 323.581 36.6782 323.043 37.2166C322.5 37.7594 322.199 38.4919 322.199 39.2586C322.199 43.411 322.199 51.0438 322.199 55.2006C322.199 55.9673 322.5 56.6996 323.043 57.2423C323.581 57.7807 324.312 58.0823 325.079 58.0823C331.131 58.0823 344.617 58.0823 344.617 58.0823V36.3724ZM311.041 36.3724C311.041 34.8562 311.334 33.4089 311.919 32.0305C312.505 30.6521 313.314 29.4632 314.347 28.4639C315.38 27.4646 316.568 26.672 317.911 26.0862C319.254 25.5003 320.683 25.2075 322.199 25.2075H355.775V69.2472H322.199C320.683 69.2472 319.254 68.9714 317.911 68.4201C316.568 67.8687 315.38 67.0935 314.347 66.0941C313.314 65.0948 312.505 63.9059 311.919 62.5275C311.334 61.1491 311.041 59.6674 311.041 58.0823V36.3724Z" fill="#0A1848"/>
<path fill-rule="evenodd" clip-rule="evenodd" d="M52.5916 35.5518C54.9942 35.5518 57.2876 36.0435 59.4717 37.0271C61.6559 38.0106 63.5672 39.3219 65.2054 40.9611C66.8435 42.6002 68.1539 44.5124 69.1368 46.698C70.1197 48.8836 70.6111 51.1789 70.6111 53.583V62.2706C70.6111 64.784 70.1197 67.0788 69.1368 69.1552C68.8228 69.8177 68.4817 70.4528 68.0995 71.0607C68.1199 71.0948 68.1404 71.1224 68.154 71.1566C67.3964 72.4406 66.4955 73.6016 65.4511 74.6466C63.8676 76.2311 62.0108 77.4604 59.8812 78.3346C57.7517 79.2089 55.5403 79.6461 53.2469 79.6461H17.372C15.0786 79.6461 12.8669 79.2089 10.7373 78.3346C8.60772 77.4604 6.75132 76.2311 5.16779 74.6466C4.12348 73.6016 3.2227 72.4406 2.45824 71.1566C2.42411 71.0951 2.38322 71.0264 2.34909 70.9581C2.00099 70.3571 1.68675 69.7287 1.40008 69.073C0.471809 66.9421 0.0078125 64.6747 0.0078125 62.2706V57.7013H12.8057C15.3243 57.7013 17.372 59.7503 17.372 62.2706H46.6672C49.9366 62.2706 52.5916 59.6207 52.5916 56.3423V35.5518Z" fill="url(#paint0_linear_blue)"/>
<path fill-rule="evenodd" clip-rule="evenodd" d="M17.372 53.5828C15.0786 53.5828 12.8669 53.1181 10.7373 52.1893C8.60772 51.2604 6.75132 49.9766 5.16779 48.3374C3.58427 46.6982 2.32836 44.7856 1.40008 42.6C0.471809 40.4144 0.0078125 38.065 0.0078125 35.5516V27.0279C0.0078125 24.6237 0.471809 22.3559 1.40008 20.225C1.71406 19.501 2.06918 18.8111 2.45824 18.1486C3.2227 16.8645 4.12348 15.7037 5.16779 14.6519C6.75132 13.0673 8.60772 11.8376 10.7373 10.9634C12.8669 10.0892 15.0786 9.65234 17.372 9.65234H53.2469C55.5403 9.65234 57.7517 10.0892 59.8812 10.9634C62.0108 11.8376 63.8676 13.0673 65.4511 14.6519C66.4955 15.7037 67.3964 16.8645 68.154 18.1486C68.5499 18.8111 68.9049 19.501 69.2189 20.225C70.1471 22.3559 70.6111 24.6237 70.6111 27.0279V31.6038H57.8132C55.2878 31.6038 53.2469 29.555 53.2469 27.0279H52.5916H23.2965C20.027 27.0279 17.372 29.6844 17.372 32.9628V53.5828Z" fill="url(#paint1_linear_blue)"/>
<defs>
<linearGradient id="paint0_linear_blue" x1="35.3095" y1="35.5518" x2="35.3095" y2="79.6461" gradientUnits="userSpaceOnUse">
<stop stop-color="#4E73FF" stop-opacity="0.72"/>
<stop offset="1" stop-color="#0638F6"/>
</linearGradient>
<linearGradient id="paint1_linear_blue" x1="35.3095" y1="9.65234" x2="35.3095" y2="53.5828" gradientUnits="userSpaceOnUse">
<stop stop-color="#0638F6"/>
<stop offset="1" stop-color="#4E73FF" stop-opacity="0.72"/>
</linearGradient>
</defs>
</svg>
